<?xml version="1.0" encoding="iso-8859-1"?>
<!-- Generator: Adobe Illustrator 18.0.0, SVG Export Plug-In . SVG Version: 6.00 Build 0)  -->
<!DOCTYPE svg PUBLIC "-//W3C//DTD SVG 1.1//EN" "http://www.w3.org/Graphics/SVG/1.1/DTD/svg11.dtd">
<svg xmlns="http://www.w3.org/2000/svg" xmlns:xlink="http://www.w3.org/1999/xlink" version="1.1" id="Capa_1" x="0px" y="0px" viewBox="0 0 58 58" style="enable-background:new 0 0 58 58;" xml:space="preserve" width="512px" height="512px">
<g>
	<path d="M20.128,47.184c-0.682,0.033-1.352,0.069-2.009,0.108c-0.551,0.033-0.972,0.506-0.938,1.058   c0.032,0.531,0.472,0.94,0.997,0.94c0.02,0,0.041,0,0.061-0.002c0.65-0.039,1.313-0.074,1.987-0.106   c0.552-0.027,0.977-0.496,0.951-1.047C21.148,47.583,20.673,47.158,20.128,47.184z" fill="#FFFFFF"/>
	<path d="M8.072,48.311c-0.714,0.113-1.385,0.231-2.009,0.355c-0.542,0.108-0.894,0.634-0.786,1.176   c0.095,0.476,0.513,0.805,0.98,0.805c0.064,0,0.13-0.006,0.196-0.019c0.6-0.119,1.245-0.233,1.932-0.342   c0.545-0.086,0.918-0.599,0.832-1.144S8.616,48.225,8.072,48.311z" fill="#FFFFFF"/>
	<path d="M26.162,47.001c-0.678,0.01-1.348,0.023-2.01,0.04c-0.552,0.013-0.989,0.472-0.975,1.024   c0.013,0.544,0.458,0.976,0.999,0.976c0.008,0,0.017,0,0.025,0c0.656-0.016,1.32-0.029,1.991-0.039   c0.552-0.008,0.993-0.462,0.985-1.015C27.168,47.435,26.693,46.993,26.162,47.001z" fill="#FFFFFF"/>
	<path d="M14.099,47.59c-0.69,0.062-1.36,0.127-2.009,0.197c-0.549,0.059-0.947,0.551-0.888,1.101   c0.055,0.513,0.488,0.894,0.993,0.894c0.035,0,0.071-0.002,0.107-0.006c0.638-0.068,1.296-0.132,1.975-0.193   c0.55-0.05,0.956-0.536,0.907-1.085C15.135,47.946,14.647,47.542,14.099,47.59z" fill="#FFFFFF"/>
	<path d="M38.228,47.202c-0.66-0.033-1.331-0.063-2.011-0.088c-0.543-0.017-1.017,0.41-1.037,0.962   c-0.021,0.552,0.41,1.016,0.962,1.037c0.673,0.025,1.335,0.054,1.987,0.086c0.017,0.001,0.034,0.001,0.051,0.001   c0.529,0,0.971-0.416,0.998-0.95C39.204,47.699,38.779,47.229,38.228,47.202z" fill="#FFFFFF"/>
	<path d="M50.284,48.368c-0.634-0.104-1.305-0.204-2.009-0.298c-0.542-0.07-1.05,0.312-1.124,0.859   c-0.073,0.547,0.311,1.05,0.859,1.124c0.683,0.091,1.333,0.188,1.949,0.289c0.055,0.009,0.11,0.013,0.164,0.013   c0.481,0,0.905-0.348,0.986-0.837C51.198,48.973,50.829,48.458,50.284,48.368z" fill="#FFFFFF"/>
	<path d="M44.258,47.623c-0.652-0.06-1.322-0.117-2.01-0.169c-0.555-0.045-1.031,0.37-1.073,0.921   c-0.042,0.55,0.37,1.031,0.921,1.073c0.677,0.052,1.336,0.107,1.979,0.167c0.031,0.003,0.063,0.004,0.093,0.004   c0.511,0,0.947-0.39,0.995-0.908C45.212,48.16,44.808,47.673,44.258,47.623z" fill="#FFFFFF"/>
	<path d="M32.194,47.006c-0.664-0.011-1.334-0.018-2.011-0.022c-0.002,0-0.004,0-0.006,0c-0.55,0-0.997,0.444-1,0.994   c-0.003,0.552,0.442,1.002,0.994,1.006c0.67,0.004,1.333,0.011,1.99,0.022c0.005,0,0.011,0,0.017,0c0.544,0,0.991-0.437,1-0.984   C33.187,47.47,32.747,47.016,32.194,47.006z" fill="#FFFFFF"/>
	<path d="M57.989,51.929c-0.003-0.067-0.022-0.131-0.04-0.197c-0.017-0.065-0.031-0.129-0.06-0.188   c-0.008-0.017-0.007-0.035-0.017-0.052l-28-50c-0.354-0.631-1.392-0.631-1.745,0L0.553,50.733c-0.279,0.287-0.482,0.647-0.529,1.08   c-0.006,0.035-0.012,0.068-0.015,0.102C0.008,51.938,0,51.958,0,51.981c0,1.248,1.076,2.678,9.06,3.818   c5.334,0.762,12.416,1.182,19.94,1.182s14.606-0.419,19.94-1.182c7.983-1.141,9.06-2.57,9.06-3.818   C58,51.962,57.99,51.947,57.989,51.929z M29,54.981c-15.313,0-25.223-1.711-26.843-2.994c0.127-0.088,0.323-0.204,0.65-0.345   c0.507-0.219,0.74-0.808,0.521-1.315c-0.034-0.079-0.091-0.139-0.142-0.204L29,4.028l25.312,45.199   c-0.001,0-0.003-0.001-0.004-0.001c-0.534-0.151-1.084,0.157-1.235,0.688s0.157,1.084,0.688,1.235   c0.713,0.203,1.287,0.411,1.706,0.619c0.103,0.051,0.211,0.077,0.319,0.09l0.068,0.121C54.263,53.263,44.344,54.981,29,54.981z" fill="#FFFFFF"/>
</g>
</svg>
