<?xml version="1.0" encoding="iso-8859-1"?>
<!-- Generator: Adobe Illustrator 18.0.0, SVG Export Plug-In . SVG Version: 6.00 Build 0)  -->
<!DOCTYPE svg PUBLIC "-//W3C//DTD SVG 1.1//EN" "http://www.w3.org/Graphics/SVG/1.1/DTD/svg11.dtd">
<svg version="1.1" id="Capa_1" xmlns="http://www.w3.org/2000/svg" xmlns:xlink="http://www.w3.org/1999/xlink" x="0px" y="0px"
	 viewBox="0 0 58 58" style="enable-background:new 0 0 58 58;" xml:space="preserve">
<path d="M57.873,51.492l-28-50c-0.354-0.631-1.392-0.631-1.745,0L0.545,50.747c0.379-0.397,0.956-0.747,1.786-1.071
	c0.514-0.201,1.094,0.053,1.295,0.567c0.201,0.515-0.053,1.095-0.567,1.295c-0.92,0.36-1.099,0.611-1.1,0.614
	c-0.174,0.351-0.523,0.551-0.889,0.551c-0.15,0-0.303-0.034-0.448-0.105c-0.375-0.186-0.577-0.579-0.548-0.974
	C0.031,51.738,0,51.857,0,51.981c0,1.248,1.076,2.678,9.06,3.818c5.334,0.762,12.416,1.182,19.94,1.182s14.606-0.419,19.94-1.182
	c7.983-1.141,9.06-2.57,9.06-3.818C58,51.81,57.956,51.642,57.873,51.492z M8.684,50.24c-0.687,0.105-1.333,0.215-1.937,0.331
	c-0.063,0.012-0.126,0.018-0.188,0.018c-0.471,0-0.89-0.333-0.981-0.813c-0.104-0.543,0.252-1.066,0.795-1.17
	c0.626-0.119,1.297-0.233,2.009-0.342c0.547-0.08,1.057,0.292,1.14,0.837C9.604,49.646,9.23,50.157,8.684,50.24z M14.581,49.555
	c-0.678,0.059-1.336,0.122-1.974,0.188c-0.035,0.003-0.07,0.005-0.105,0.005c-0.506,0-0.94-0.382-0.994-0.896
	c-0.058-0.549,0.341-1.041,0.891-1.099c0.649-0.068,1.32-0.132,2.01-0.191c0.551-0.053,1.034,0.36,1.082,0.91
	S15.131,49.508,14.581,49.555z M20.53,49.168c-0.673,0.031-1.336,0.065-1.986,0.103c-0.02,0.001-0.04,0.001-0.059,0.001
	c-0.526,0-0.966-0.41-0.998-0.942c-0.032-0.551,0.389-1.024,0.94-1.057c0.659-0.038,1.329-0.073,2.011-0.104
	c0.548-0.021,1.02,0.402,1.044,0.954S21.082,49.143,20.53,49.168z M26.497,48.997c-0.67,0.009-1.334,0.021-1.99,0.036
	c-0.008,0-0.016,0-0.023,0c-0.542,0-0.987-0.433-0.999-0.977c-0.013-0.552,0.424-1.01,0.977-1.022
	c0.663-0.016,1.333-0.028,2.01-0.037c0.553,0.021,1.006,0.435,1.013,0.987S27.049,48.989,26.497,48.997z M32.486,49.012
	c-0.006,0-0.013,0-0.019,0c-0.656-0.012-1.32-0.021-1.989-0.025c-0.552-0.004-0.997-0.455-0.993-1.007s0.501-0.991,1.007-0.993
	c0.677,0.005,1.348,0.013,2.012,0.025c0.552,0.01,0.992,0.466,0.981,1.019C33.476,48.576,33.03,49.012,32.486,49.012z
	 M38.486,49.216c-0.018,0-0.035,0-0.052-0.001c-0.652-0.033-1.314-0.063-1.987-0.09c-0.552-0.021-0.981-0.487-0.959-1.039
	c0.021-0.552,0.492-0.969,1.039-0.959c0.681,0.027,1.351,0.057,2.011,0.091c0.552,0.028,0.976,0.498,0.947,1.05
	C39.456,48.802,39.015,49.216,38.486,49.216z M44.473,49.647c-0.032,0-0.063-0.001-0.096-0.004c-0.641-0.061-1.3-0.118-1.977-0.171
	c-0.55-0.043-0.961-0.525-0.918-1.076c0.043-0.551,0.526-0.961,1.076-0.918c0.688,0.054,1.358,0.112,2.009,0.174
	c0.55,0.052,0.953,0.541,0.901,1.09C45.418,49.259,44.982,49.647,44.473,49.647z M50.427,50.405c-0.055,0-0.111-0.004-0.168-0.014
	c-0.613-0.104-1.263-0.203-1.947-0.297c-0.547-0.075-0.93-0.58-0.854-1.127c0.075-0.548,0.585-0.931,1.127-0.854
	c0.706,0.097,1.376,0.2,2.009,0.307c0.544,0.092,0.911,0.608,0.819,1.153C51.329,50.06,50.906,50.405,50.427,50.405z M57.05,51.518
	c-0.186,0.321-0.521,0.5-0.867,0.5c-0.169,0-0.341-0.043-0.499-0.134c-0.375-0.217-0.928-0.437-1.643-0.653
	c-0.529-0.16-0.828-0.718-0.667-1.247c0.16-0.529,0.718-0.829,1.247-0.667c0.874,0.264,1.548,0.537,2.063,0.834
	C57.162,50.428,57.326,51.039,57.05,51.518z"/>
<g>
</g>
<g>
</g>
<g>
</g>
<g>
</g>
<g>
</g>
<g>
</g>
<g>
</g>
<g>
</g>
<g>
</g>
<g>
</g>
<g>
</g>
<g>
</g>
<g>
</g>
<g>
</g>
<g>
</g>
</svg>
