<?xml version="1.0" encoding="iso-8859-1"?>
<!-- Generator: Adobe Illustrator 18.0.0, SVG Export Plug-In . SVG Version: 6.00 Build 0)  -->
<!DOCTYPE svg PUBLIC "-//W3C//DTD SVG 1.1//EN" "http://www.w3.org/Graphics/SVG/1.1/DTD/svg11.dtd">
<svg xmlns="http://www.w3.org/2000/svg" xmlns:xlink="http://www.w3.org/1999/xlink" version="1.1" id="Capa_1" x="0px" y="0px" viewBox="0 0 60 60" style="enable-background:new 0 0 60 60;" xml:space="preserve" width="512px" height="512px">
<g>
	<path d="M49.94,1.182C44.606,0.419,37.525,0,30,0S15.394,0.419,10.06,1.182C2.076,2.322,1,3.752,1,5v50   c0,1.248,1.076,2.678,9.06,3.818C15.394,59.581,22.475,60,30,60s14.606-0.419,19.94-1.182C57.924,57.678,59,56.248,59,55V5   C59,3.752,57.924,2.322,49.94,1.182z M30,2c15.3,0,25.229,1.709,26.862,2.992c-0.028,0.023-0.052,0.046-0.086,0.07   c-0.058,0.04-0.123,0.081-0.197,0.122c-0.077,0.043-0.164,0.086-0.258,0.13c-0.09,0.041-0.186,0.083-0.291,0.125   c-0.111,0.044-0.233,0.089-0.361,0.133c-0.121,0.042-0.246,0.084-0.381,0.126c-0.145,0.045-0.303,0.09-0.465,0.135   c-0.15,0.042-0.302,0.083-0.466,0.125c-0.18,0.046-0.373,0.091-0.569,0.136c-0.177,0.041-0.356,0.082-0.547,0.122   c-0.214,0.045-0.442,0.09-0.673,0.135c-0.204,0.04-0.408,0.08-0.625,0.119c-0.247,0.044-0.509,0.088-0.773,0.132   c-0.231,0.038-0.46,0.077-0.703,0.114c-0.278,0.043-0.573,0.084-0.866,0.126c-0.257,0.036-0.511,0.073-0.78,0.108   c-0.31,0.041-0.639,0.08-0.965,0.119c-0.281,0.034-0.557,0.068-0.849,0.1c-0.344,0.038-0.707,0.074-1.066,0.11   c-0.301,0.03-0.596,0.061-0.908,0.09c-0.377,0.035-0.774,0.067-1.167,0.099c-0.323,0.027-0.639,0.055-0.973,0.08   c-0.41,0.031-0.841,0.058-1.267,0.086c-0.339,0.022-0.67,0.047-1.019,0.067c-0.451,0.027-0.924,0.049-1.391,0.073   c-0.35,0.018-0.691,0.037-1.05,0.053c-0.5,0.022-1.022,0.039-1.539,0.057c-0.348,0.012-0.686,0.027-1.042,0.037   c-0.597,0.017-1.218,0.028-1.836,0.04c-0.298,0.006-0.584,0.014-0.886,0.019C31.929,7.993,30.976,8,30,8s-1.929-0.007-2.86-0.021   c-0.302-0.004-0.588-0.013-0.886-0.019c-0.618-0.012-1.239-0.023-1.836-0.04c-0.356-0.01-0.694-0.025-1.042-0.037   c-0.517-0.018-1.039-0.035-1.539-0.057c-0.359-0.016-0.7-0.035-1.05-0.053c-0.467-0.024-0.94-0.046-1.391-0.073   c-0.349-0.021-0.68-0.045-1.019-0.067c-0.426-0.028-0.857-0.056-1.267-0.086c-0.334-0.025-0.65-0.053-0.973-0.08   c-0.393-0.033-0.79-0.065-1.167-0.099c-0.312-0.029-0.607-0.06-0.908-0.09c-0.36-0.036-0.723-0.072-1.066-0.11   c-0.292-0.032-0.568-0.066-0.849-0.1c-0.326-0.039-0.655-0.078-0.965-0.119c-0.269-0.035-0.523-0.072-0.78-0.108   c-0.294-0.042-0.589-0.083-0.866-0.126C9.29,6.678,9.061,6.639,8.83,6.601C8.567,6.557,8.304,6.514,8.058,6.469   C7.841,6.43,7.637,6.391,7.433,6.351C7.202,6.306,6.974,6.261,6.76,6.216C6.569,6.175,6.391,6.134,6.213,6.093   c-0.196-0.045-0.39-0.091-0.569-0.136C5.48,5.915,5.328,5.874,5.178,5.832c-0.162-0.045-0.32-0.09-0.465-0.135   C4.577,5.654,4.452,5.612,4.332,5.57C4.203,5.526,4.082,5.482,3.97,5.437C3.865,5.396,3.769,5.354,3.68,5.313   c-0.095-0.044-0.181-0.087-0.258-0.13C3.348,5.142,3.282,5.102,3.224,5.061c-0.034-0.023-0.058-0.047-0.086-0.07   C4.771,3.709,14.7,2,30,2z M30,58c-15.313,0-25.223-1.711-26.843-2.994c0.127-0.088,0.323-0.204,0.65-0.345   c0.507-0.219,0.74-0.808,0.521-1.315c-0.22-0.506-0.808-0.741-1.315-0.521C3.01,52.827,3.004,52.829,3,52.831V7.169   c0.009,0.004,0.021,0.008,0.03,0.012c0.062,0.027,0.134,0.053,0.199,0.08C3.354,7.311,3.48,7.362,3.618,7.412   c0.083,0.03,0.175,0.06,0.263,0.09c0.137,0.047,0.276,0.093,0.426,0.139c0.1,0.031,0.207,0.062,0.313,0.092   c0.156,0.045,0.318,0.09,0.488,0.135C5.223,7.9,5.341,7.93,5.462,7.96C5.644,8.005,5.834,8.05,6.03,8.095   c0.128,0.029,0.255,0.058,0.39,0.087c0.213,0.046,0.439,0.091,0.668,0.136C7.225,8.346,7.358,8.373,7.502,8.4   c0.261,0.049,0.539,0.097,0.821,0.145c0.131,0.022,0.254,0.045,0.39,0.067c0.427,0.07,0.873,0.139,1.347,0.206   C15.394,9.581,22.475,10,30,10s14.606-0.419,19.94-1.182c0.474-0.068,0.92-0.137,1.347-0.206c0.136-0.022,0.259-0.045,0.39-0.067   c0.282-0.048,0.56-0.096,0.821-0.145c0.143-0.027,0.277-0.054,0.414-0.081c0.229-0.045,0.455-0.091,0.668-0.136   c0.134-0.029,0.262-0.058,0.39-0.087c0.196-0.045,0.386-0.09,0.568-0.135c0.121-0.03,0.24-0.06,0.354-0.091   c0.17-0.045,0.331-0.09,0.488-0.135c0.106-0.031,0.213-0.061,0.313-0.092c0.15-0.046,0.289-0.093,0.426-0.139   c0.088-0.03,0.18-0.06,0.263-0.09c0.138-0.05,0.264-0.101,0.389-0.151c0.066-0.027,0.137-0.053,0.199-0.08   c0.009-0.004,0.021-0.008,0.03-0.012v45.665c-0.471-0.204-1.035-0.402-1.692-0.589c-0.534-0.151-1.084,0.157-1.235,0.688   s0.157,1.084,0.688,1.235c0.713,0.203,1.287,0.411,1.706,0.619c0.143,0.071,0.295,0.104,0.444,0.104c0.03,0,0.059-0.01,0.089-0.012   C55.895,56.173,45.818,58,30,58z" fill="#FFFFFF"/>
	<path d="M15.099,50.609c-0.69,0.062-1.36,0.127-2.009,0.197c-0.549,0.059-0.947,0.551-0.888,1.101   c0.055,0.513,0.488,0.894,0.993,0.894c0.035,0,0.071-0.002,0.107-0.006c0.638-0.068,1.296-0.132,1.975-0.193   c0.55-0.05,0.956-0.536,0.907-1.085C16.134,50.965,15.645,50.561,15.099,50.609z" fill="#FFFFFF"/>
	<path d="M21.128,50.203c-0.682,0.033-1.352,0.069-2.009,0.108c-0.551,0.033-0.972,0.506-0.938,1.058   c0.032,0.531,0.472,0.94,0.997,0.94c0.02,0,0.041,0,0.061-0.002c0.65-0.039,1.313-0.074,1.987-0.106   c0.552-0.027,0.977-0.496,0.951-1.047C22.148,50.602,21.661,50.177,21.128,50.203z" fill="#FFFFFF"/>
	<path d="M9.072,51.33c-0.714,0.113-1.385,0.231-2.009,0.355c-0.542,0.108-0.894,0.634-0.786,1.176   c0.095,0.476,0.513,0.805,0.98,0.805c0.064,0,0.13-0.006,0.196-0.019c0.6-0.119,1.245-0.233,1.932-0.342   c0.545-0.086,0.918-0.599,0.832-1.144S9.616,51.244,9.072,51.33z" fill="#FFFFFF"/>
	<path d="M39.228,50.221c-0.66-0.033-1.331-0.063-2.011-0.088c-0.544-0.017-1.016,0.41-1.037,0.962   c-0.021,0.552,0.41,1.016,0.962,1.037c0.673,0.025,1.335,0.054,1.987,0.086c0.017,0.001,0.034,0.001,0.051,0.001   c0.529,0,0.971-0.416,0.998-0.95C40.204,50.718,39.779,50.249,39.228,50.221z" fill="#FFFFFF"/>
	<path d="M27.162,50.021c-0.678,0.01-1.348,0.023-2.01,0.04c-0.552,0.013-0.989,0.472-0.975,1.024   c0.013,0.544,0.458,0.976,0.999,0.976c0.008,0,0.017,0,0.025,0c0.656-0.016,1.32-0.029,1.991-0.039   c0.552-0.008,0.993-0.462,0.985-1.015S27.729,50.012,27.162,50.021z" fill="#FFFFFF"/>
	<path d="M45.258,50.642c-0.652-0.06-1.322-0.117-2.01-0.169c-0.551-0.045-1.031,0.37-1.073,0.921   c-0.042,0.55,0.37,1.031,0.921,1.073c0.677,0.052,1.336,0.107,1.979,0.167c0.031,0.003,0.063,0.004,0.093,0.004   c0.511,0,0.947-0.39,0.995-0.908C46.212,51.179,45.808,50.692,45.258,50.642z" fill="#FFFFFF"/>
	<path d="M51.284,51.387c-0.634-0.104-1.305-0.204-2.009-0.298c-0.544-0.07-1.05,0.312-1.124,0.859   c-0.073,0.547,0.311,1.05,0.859,1.124c0.683,0.091,1.333,0.188,1.949,0.289c0.055,0.009,0.11,0.013,0.164,0.013   c0.481,0,0.905-0.348,0.986-0.837C52.198,51.992,51.829,51.477,51.284,51.387z" fill="#FFFFFF"/>
	<path d="M33.194,50.025c-0.664-0.011-1.334-0.018-2.011-0.022c-0.002,0-0.004,0-0.006,0c-0.55,0-0.997,0.444-1,0.994   C30.174,51.55,30.62,52,31.172,52.003c0.67,0.004,1.333,0.011,1.99,0.022c0.005,0,0.011,0,0.017,0c0.544,0,0.991-0.437,1-0.984   C34.187,50.489,33.747,50.035,33.194,50.025z" fill="#FFFFFF"/>
</g>
</svg>
