<?xml version="1.0" encoding="iso-8859-1"?>
<!-- Generator: Adobe Illustrator 18.0.0, SVG Export Plug-In . SVG Version: 6.00 Build 0)  -->
<!DOCTYPE svg PUBLIC "-//W3C//DTD SVG 1.1//EN" "http://www.w3.org/Graphics/SVG/1.1/DTD/svg11.dtd">
<svg version="1.1" id="Capa_1" xmlns="http://www.w3.org/2000/svg" xmlns:xlink="http://www.w3.org/1999/xlink" x="0px" y="0px"
	 viewBox="0 0 60 60" style="enable-background:new 0 0 60 60;" xml:space="preserve">
<path d="M49.94,1.182C44.606,0.419,37.525,0,30,0S15.394,0.419,10.06,1.182C2.076,2.322,1,3.752,1,5v50
	c0,1.248,1.076,2.678,9.06,3.818C15.394,59.581,22.475,60,30,60s14.606-0.419,19.94-1.182C57.924,57.678,59,56.248,59,55V5
	C59,3.752,57.924,2.322,49.94,1.182z M30,2c15.3,0,25.229,1.709,26.862,2.992c-0.028,0.023-0.052,0.046-0.086,0.07
	c-0.058,0.04-0.123,0.081-0.197,0.122c-0.077,0.043-0.164,0.086-0.258,0.13c-0.09,0.041-0.186,0.083-0.291,0.125
	c-0.111,0.044-0.233,0.089-0.361,0.133c-0.121,0.042-0.246,0.084-0.381,0.126c-0.145,0.045-0.303,0.09-0.465,0.135
	c-0.15,0.042-0.302,0.083-0.466,0.125c-0.18,0.046-0.373,0.091-0.569,0.136c-0.177,0.041-0.356,0.082-0.547,0.122
	c-0.214,0.045-0.442,0.09-0.673,0.135c-0.204,0.04-0.408,0.08-0.625,0.119c-0.247,0.044-0.509,0.088-0.773,0.132
	c-0.231,0.038-0.46,0.077-0.703,0.114c-0.278,0.043-0.573,0.084-0.866,0.126c-0.257,0.036-0.511,0.073-0.78,0.108
	c-0.31,0.041-0.639,0.08-0.965,0.119c-0.281,0.034-0.557,0.068-0.849,0.1c-0.344,0.038-0.707,0.074-1.066,0.11
	c-0.301,0.03-0.596,0.061-0.908,0.09c-0.377,0.035-0.774,0.067-1.167,0.099c-0.323,0.027-0.639,0.055-0.973,0.08
	c-0.41,0.031-0.841,0.058-1.267,0.086c-0.339,0.022-0.67,0.047-1.019,0.067c-0.451,0.027-0.924,0.049-1.391,0.073
	c-0.35,0.018-0.691,0.037-1.05,0.053c-0.5,0.022-1.022,0.039-1.539,0.057c-0.348,0.012-0.686,0.027-1.042,0.037
	c-0.597,0.017-1.218,0.028-1.836,0.04c-0.298,0.006-0.584,0.014-0.886,0.019C31.929,7.993,30.976,8,30,8s-1.929-0.007-2.86-0.021
	c-0.302-0.004-0.588-0.013-0.886-0.019c-0.618-0.012-1.239-0.023-1.836-0.04c-0.356-0.01-0.694-0.025-1.042-0.037
	c-0.517-0.018-1.039-0.035-1.539-0.057c-0.359-0.016-0.7-0.035-1.05-0.053c-0.467-0.024-0.94-0.046-1.391-0.073
	c-0.349-0.021-0.68-0.045-1.019-0.067c-0.426-0.028-0.857-0.056-1.267-0.086c-0.334-0.025-0.65-0.053-0.973-0.08
	c-0.393-0.033-0.79-0.065-1.167-0.099c-0.312-0.029-0.607-0.06-0.908-0.09c-0.36-0.036-0.723-0.072-1.066-0.11
	c-0.292-0.032-0.568-0.066-0.849-0.1c-0.326-0.039-0.655-0.078-0.965-0.119c-0.269-0.035-0.523-0.072-0.78-0.108
	c-0.294-0.042-0.589-0.083-0.866-0.126C9.29,6.678,9.061,6.639,8.83,6.601C8.567,6.557,8.304,6.514,8.058,6.469
	C7.841,6.43,7.637,6.391,7.433,6.351C7.202,6.306,6.974,6.261,6.76,6.216C6.569,6.175,6.391,6.134,6.213,6.093
	c-0.196-0.045-0.39-0.091-0.569-0.136C5.48,5.915,5.328,5.874,5.178,5.832c-0.162-0.045-0.32-0.09-0.465-0.135
	C4.577,5.654,4.452,5.612,4.332,5.57C4.203,5.526,4.082,5.482,3.97,5.437C3.865,5.396,3.769,5.354,3.68,5.313
	c-0.095-0.044-0.181-0.087-0.258-0.13C3.348,5.142,3.282,5.102,3.224,5.061c-0.034-0.023-0.058-0.047-0.086-0.07
	C4.771,3.709,14.7,2,30,2z M3.898,54.622c-0.647,0.27-0.866,0.468-0.922,0.529c-0.118,0.44-0.518,0.74-0.965,0.74
	c-0.061,0-0.122-0.005-0.184-0.017c-0.543-0.101-0.901-0.623-0.8-1.166c0.191-1.028,1.292-1.596,2.103-1.933
	c0.51-0.211,1.095,0.03,1.307,0.54C4.649,53.825,4.408,54.41,3.898,54.622z M9.495,53.288c-0.687,0.107-1.332,0.22-1.933,0.338
	c-0.065,0.013-0.13,0.019-0.193,0.019c-0.469,0-0.887-0.331-0.98-0.808c-0.106-0.542,0.247-1.067,0.789-1.174
	c0.625-0.123,1.295-0.239,2.009-0.351c0.544-0.083,1.058,0.287,1.142,0.833C10.414,52.691,10.041,53.203,9.495,53.288z
	 M15.389,52.591c-0.678,0.06-1.337,0.124-1.975,0.192c-0.036,0.003-0.071,0.005-0.107,0.005c-0.504,0-0.938-0.381-0.993-0.895
	c-0.058-0.549,0.34-1.042,0.889-1.1c0.648-0.069,1.319-0.134,2.009-0.195c0.563-0.041,1.036,0.358,1.084,0.908
	C16.346,52.057,15.939,52.542,15.389,52.591z M21.337,52.196c-0.674,0.032-1.337,0.067-1.987,0.105
	c-0.02,0.001-0.04,0.002-0.06,0.002c-0.525,0-0.966-0.41-0.997-0.941c-0.033-0.552,0.388-1.025,0.939-1.057
	c0.658-0.039,1.328-0.074,2.01-0.107c0.547-0.03,1.02,0.4,1.046,0.952C22.315,51.702,21.889,52.17,21.337,52.196z M27.303,52.018
	c-0.67,0.009-1.334,0.022-1.99,0.038c-0.008,0-0.017,0-0.025,0c-0.541,0-0.986-0.432-0.999-0.976
	c-0.014-0.552,0.423-1.011,0.975-1.024c0.663-0.017,1.333-0.029,2.011-0.039c0.004,0,0.009,0,0.014,0c0.546,0,0.992,0.438,1,0.986
	C28.297,51.557,27.855,52.01,27.303,52.018z M33.292,52.028c-0.006,0-0.012,0-0.018,0c-0.657-0.011-1.32-0.019-1.99-0.023
	c-0.552-0.003-0.997-0.454-0.994-1.006c0.003-0.55,0.451-0.994,1-0.994c0.002,0,0.004,0,0.006,0
	c0.677,0.004,1.348,0.012,2.011,0.023c0.552,0.01,0.992,0.465,0.983,1.017C34.282,51.591,33.836,52.028,33.292,52.028z
	 M39.292,52.226c-0.017,0-0.034,0-0.052-0.001c-0.651-0.033-1.314-0.063-1.986-0.088c-0.552-0.021-0.982-0.486-0.961-1.038
	c0.021-0.552,0.488-0.984,1.038-0.961c0.681,0.026,1.352,0.056,2.012,0.089c0.551,0.028,0.976,0.498,0.948,1.049
	C40.262,51.811,39.82,52.226,39.292,52.226z M45.279,52.647c-0.031,0-0.062-0.001-0.093-0.004c-0.642-0.06-1.302-0.116-1.979-0.168
	c-0.551-0.042-0.962-0.523-0.92-1.074s0.521-0.962,1.074-0.92c0.688,0.053,1.357,0.11,2.009,0.171
	c0.55,0.051,0.955,0.538,0.903,1.088C46.226,52.258,45.79,52.647,45.279,52.647z M51.235,53.392c-0.054,0-0.109-0.004-0.165-0.014
	c-0.615-0.102-1.265-0.199-1.949-0.292c-0.547-0.074-0.931-0.578-0.857-1.125c0.074-0.548,0.579-0.928,1.125-0.857
	c0.705,0.095,1.375,0.196,2.009,0.301c0.545,0.09,0.913,0.605,0.823,1.15C52.139,53.045,51.715,53.392,51.235,53.392z
	 M57.898,54.408c-0.178,0.341-0.526,0.536-0.887,0.536c-0.156,0-0.314-0.037-0.463-0.114c-0.404-0.211-0.971-0.424-1.684-0.631
	c-0.53-0.154-0.835-0.709-0.681-1.24c0.154-0.53,0.708-0.834,1.24-0.681c0.84,0.245,1.531,0.507,2.053,0.78
	C57.965,53.314,58.154,53.918,57.898,54.408z"/>
<g>
</g>
<g>
</g>
<g>
</g>
<g>
</g>
<g>
</g>
<g>
</g>
<g>
</g>
<g>
</g>
<g>
</g>
<g>
</g>
<g>
</g>
<g>
</g>
<g>
</g>
<g>
</g>
<g>
</g>
</svg>
