<?xml version="1.0" encoding="iso-8859-1"?>
<!-- Generator: Adobe Illustrator 18.0.0, SVG Export Plug-In . SVG Version: 6.00 Build 0)  -->
<!DOCTYPE svg PUBLIC "-//W3C//DTD SVG 1.1//EN" "http://www.w3.org/Graphics/SVG/1.1/DTD/svg11.dtd">
<svg version="1.1" id="Capa_1" xmlns="http://www.w3.org/2000/svg" xmlns:xlink="http://www.w3.org/1999/xlink" x="0px" y="0px"
	 viewBox="0 0 59.998 59.998" style="enable-background:new 0 0 59.998 59.998;" xml:space="preserve">
<g>
	<path d="M28.991,0c-0.024,0-0.046,0.012-0.07,0.014C28.945,0.012,28.966,0,28.991,0z"/>
	<path d="M29.433,0.098c-0.007-0.003-0.014-0.002-0.021-0.005c0.345,0.158,0.587,0.502,0.587,0.905v1c0,0.552-0.448,1-1,1
		s-1-0.448-1-1v-1c0-0.398,0.237-0.735,0.573-0.896c-0.011,0.005-0.024,0.003-0.034,0.009l-25,13
		c-0.011,0.006-0.018,0.015-0.029,0.021c-0.001,0.001-0.002,0.001-0.003,0.002L29,25.88l26.482-13.241L29.433,0.098z
		M29.999,19.998c0,0.552-0.448,1-1,1s-1-0.448-1-1v-2c0-0.552,0.448-1,1-1s1,0.448,1,1V19.998z M29.999,13.998
		c0,0.552-0.448,1-1,1s-1-0.448-1-1v-2c0-0.552,0.448-1,1-1s1,0.448,1,1V13.998z M29.999,7.998c0,0.552-0.448,1-1,1s-1-0.448-1-1
		v-2c0-0.552,0.448-1,1-1s1,0.448,1,1V7.998z"/>
	<path d="M30,27.617v32.382c0.138,0,0.272-0.038,0.401-0.094c0.015-0.007,0.032-0.004,0.046-0.011l26-13
		c0.339-0.169,0.553-0.516,0.553-0.895V14.117L30,27.617z M38.409,38.342c-0.168,0.366-0.53,0.581-0.908,0.581
		c-0.141,0-0.283-0.029-0.418-0.092l-1.816-0.838c-0.501-0.231-0.721-0.826-0.489-1.327c0.231-0.502,0.826-0.722,1.327-0.489
		l1.816,0.838C38.422,37.246,38.641,37.841,38.409,38.342z M43.858,40.856c-0.169,0.366-0.531,0.581-0.909,0.581
		c-0.14,0-0.283-0.029-0.418-0.092l-1.816-0.838c-0.501-0.231-0.72-0.826-0.489-1.327c0.231-0.501,0.826-0.72,1.327-0.489
		l1.816,0.838C43.87,39.76,44.089,40.354,43.858,40.856z M49.305,43.37c-0.168,0.366-0.53,0.581-0.908,0.581
		c-0.141,0-0.283-0.029-0.418-0.092l-1.816-0.838c-0.501-0.231-0.721-0.826-0.489-1.327c0.231-0.502,0.826-0.721,1.327-0.489
		l1.816,0.838C49.318,42.275,49.537,42.87,49.305,43.37z"/>
	<path d="M2.999,45.998c0,0.379,0.214,0.725,0.553,0.895L28,59.117v-31.5l-25-12.5V45.998z M24.371,35.033l1.816-0.838
		c0.502-0.231,1.095-0.012,1.327,0.489c0.231,0.501,0.012,1.096-0.489,1.327l-1.816,0.838c-0.136,0.063-0.278,0.092-0.418,0.092
		c-0.378,0-0.74-0.215-0.909-0.581C23.651,35.858,23.87,35.264,24.371,35.033z M18.923,37.548l1.816-0.838
		c0.499-0.231,1.096-0.013,1.327,0.489c0.232,0.501,0.013,1.095-0.489,1.327l-1.816,0.838c-0.135,0.063-0.278,0.092-0.418,0.092
		c-0.378,0-0.74-0.215-0.908-0.581C18.203,38.373,18.422,37.779,18.923,37.548z M13.476,40.061l1.816-0.838
		c0.502-0.231,1.096-0.012,1.327,0.489c0.231,0.501,0.012,1.096-0.489,1.327l-1.816,0.838c-0.136,0.063-0.278,0.092-0.418,0.092
		c-0.378,0-0.74-0.215-0.909-0.581C12.756,40.887,12.974,40.293,13.476,40.061z M8.028,42.577l1.816-0.838
		c0.5-0.231,1.096-0.013,1.327,0.489c0.232,0.501,0.013,1.095-0.489,1.327l-1.816,0.838c-0.135,0.063-0.278,0.093-0.418,0.093
		c-0.378,0-0.74-0.216-0.908-0.582C7.307,43.402,7.527,42.808,8.028,42.577z"/>
</g>
</svg>
